<?xml version="1.0" standalone="no"?>
<!DOCTYPE svg PUBLIC "-//W3C//DTD SVG 20010904//EN"
 "http://www.w3.org/TR/2001/REC-SVG-20010904/DTD/svg10.dtd">
<svg version="1.0" xmlns="http://www.w3.org/2000/svg"
 width="150.000000pt" height="150.000000pt" viewBox="0 0 150.000000 150.000000"
 preserveAspectRatio="xMidYMid meet">
<metadata>
Created by potrace 1.16, written by Peter Selinger 2001-2019
</metadata>
<g transform="translate(0.000000,150.000000) scale(0.100000,-0.100000)"
fill="#000000" stroke="none">
<path d="M449 1468 c-21 -14 -45 -46 -64 -82 -26 -53 -29 -70 -28 -145 0 -96
24 -178 70 -243 42 -61 79 -83 142 -83 50 0 56 3 87 39 115 133 64 440 -86
516 -51 26 -79 25 -121 -2z"/>
<path d="M985 1441 c-49 -30 -113 -109 -136 -170 -26 -67 -36 -198 -20 -257
34 -127 140 -158 239 -69 144 130 175 401 56 494 -34 27 -98 28 -139 2z"/>
<path d="M104 1041 c-50 -22 -94 -104 -94 -176 0 -93 64 -227 132 -278 128
-96 248 -25 248 146 0 112 -54 221 -136 278 -46 31 -115 45 -150 30z"/>
<path d="M1286 936 c-53 -20 -121 -89 -153 -156 -37 -78 -44 -191 -14 -252 91
-190 361 -12 361 239 0 133 -86 208 -194 169z"/>
<path d="M633 690 c-215 -107 -447 -487 -369 -605 9 -13 35 -34 59 -46 60 -31
151 -28 313 10 144 34 147 34 286 -18 95 -35 155 -23 225 44 l46 44 -5 68
c-12 168 -206 442 -363 514 -60 28 -121 24 -192 -11z"/>
</g>
</svg>
